<svg xmlns="http://www.w3.org/2000/svg" xmlns:xlink="http://www.w3.org/1999/xlink" width="363.973" height="277.253" viewBox="0 0 363.973 277.253">
  <defs>
    <linearGradient id="linear-gradient" x1="0.302" y1="-0.395" x2="0.771" y2="1.667" gradientUnits="objectBoundingBox">
      <stop offset="0" stop-color="#ffb000"/>
      <stop offset="1" stop-color="#ff7900"/>
    </linearGradient>
    <linearGradient id="linear-gradient-2" x1="0.455" y1="0.975" x2="0.547" y2="-0.106" gradientUnits="objectBoundingBox">
      <stop offset="0" stop-color="#ffc5ae"/>
      <stop offset="1" stop-color="#ea8b6a"/>
    </linearGradient>
    <linearGradient id="linear-gradient-3" x1="1.578" y1="0.415" x2="-0.116" y2="0.543" xlink:href="#linear-gradient-2"/>
    <linearGradient id="linear-gradient-4" x1="0.371" y1="1.049" x2="0.703" y2="-0.592" xlink:href="#linear-gradient-2"/>
    <linearGradient id="linear-gradient-5" x1="0.481" y1="0.893" x2="0.532" y2="-0.459" xlink:href="#linear-gradient-2"/>
    <linearGradient id="linear-gradient-6" x1="0.531" y1="1.066" x2="0.464" y2="-0.346" xlink:href="#linear-gradient-2"/>
    <linearGradient id="linear-gradient-7" x1="0.044" y1="1.044" x2="0.876" y2="-0.385" xlink:href="#linear-gradient-2"/>
    <linearGradient id="linear-gradient-8" x1="0.373" y1="0.108" x2="0.795" y2="1.414" xlink:href="#linear-gradient-2"/>
    <linearGradient id="linear-gradient-9" x1="0.228" y1="0.037" x2="1" y2="0.869" xlink:href="#linear-gradient-2"/>
    <linearGradient id="linear-gradient-10" x1="-0.532" y1="0.2" x2="1.139" y2="0.617" xlink:href="#linear-gradient-2"/>
    <linearGradient id="linear-gradient-11" x1="0.074" y1="-0.038" x2="0.862" y2="0.848" xlink:href="#linear-gradient-2"/>
    <linearGradient id="linear-gradient-12" x1="1.391" y1="-0.23" x2="-0.315" y2="1.025" xlink:href="#linear-gradient-2"/>
    <linearGradient id="linear-gradient-13" x1="0.576" y1="1.109" x2="0.387" y2="-0.909" xlink:href="#linear-gradient-2"/>
    <linearGradient id="linear-gradient-14" x1="0.422" y1="0.681" x2="0.616" y2="0.013" xlink:href="#linear-gradient-2"/>
  </defs>
  <g id="Group_13294" data-name="Group 13294" transform="translate(-184.444 -150.517)">
    <g id="Group_13282" data-name="Group 13282" transform="translate(435.787 207.043)">
      <path id="Path_30246" data-name="Path 30246" d="M541.218,293.706,532.9,269.3l-13.893,4.734-28.374-83.261L459,201.551l.1.283-10.2,44.043-14.517,62.658,8.469,18.7,29.871-10.179,10.874-3.706,12.1-4.127,9.884,29.006,31.634-10.778-9.884-29.006ZM483.7,286.068l-7.176,2.446L462.778,293.2l9.38-46.572.881-3.864,14.33,42.054Z" transform="translate(-434.371 -190.774)" fill="#98c4f9"/>
      <path id="Path_30247" data-name="Path 30247" d="M528.852,298.444l9.883,29.006-20.15-8.619L486.381,202.8l-11.814,39.967L469.1,265.4l-18.681-19.522,10.2-44.043-.1-.283,31.635-10.778,28.373,83.261,13.893-4.734,8.319,24.405Z" transform="translate(-435.898 -190.773)" opacity="0.25" style="mix-blend-mode: overlay;isolation: isolate"/>
      <path id="Path_30248" data-name="Path 30248" d="M487.619,323.375l-10.874,3.706,1.6-22.408v-4.085l2.212-2.047,1.423-1.314,5.753-1.132S487.374,312.555,487.619,323.375Z" transform="translate(-438.405 -200.8)" opacity="0.25" style="mix-blend-mode: overlay;isolation: isolate"/>
      <path id="Path_30249" data-name="Path 30249" d="M487.29,295.773a9.039,9.039,0,0,0-7.464-3.018c-4.744.4-7.391,2.175-7.551,7.117s1.02,29.851-.064,39.736,5.656,10.873,6.042,3.558-2.476-30.247-.353-34,.832,4.151,3.059,6.722,4.6-1.977,2.228-8.105S487.29,295.773,487.29,295.773Z" transform="translate(-437.962 -200.479)" fill="url(#linear-gradient)"/>
    </g>
    <g id="Group_13285" data-name="Group 13285" transform="translate(184.444 231.145)">
      <g id="Group_13283" data-name="Group 13283" transform="translate(0 18.4)">
        <path id="Path_30250" data-name="Path 30250" d="M167.556,253.637a5.614,5.614,0,0,1-1.673-.153c-.3-.128-1.229-.514-9.3-14.924l1.451-.813c3.016,5.382,7.587,13.214,8.555,14.215a86.847,86.847,0,0,0,9.985-.625l.166,1.656C174.047,253.263,169.913,253.637,167.556,253.637Z" transform="translate(-156.582 -237.747)" fill="#ff6643"/>
      </g>
      <path id="Path_30251" data-name="Path 30251" d="M197.338,262.266v.482s-.441,9.148-7.287,8.752c-.017,0-.033,0-.051,0-4.234-.274-9.475-2.25-12.99-3.719-2.209-.923-3.74-1.647-3.911-1.618-.445.071,5.187,23.5,5.112,24.833a2.226,2.226,0,0,1-.112.566c-.4,1.268-1.792,2.79-2.628,2.915-.088.013-.267-.149-.52-.466-2.546-3.165-12.625-21.551-12.9-27.554-.3-6.6,3.04-10.57,7.562-11.326,3.336-.558,13.091.786,17.978,1.53,1.734.267,2.853.454,2.853.454Z" transform="translate(-157.101 -220.989)" fill="#092533"/>
      <g id="Group_13284" data-name="Group 13284" transform="translate(13.809 35.669)">
        <path id="Path_30252" data-name="Path 30252" d="M179.146,291.964a2.226,2.226,0,0,1-.112.566c-.4,1.269-1.792,2.79-2.628,2.915-.088.013-.267-.149-.52-.466,3.586-5.062-5.786-29.708-3.748-29.779,1.006-.033,3.232,1.676,5.807,3.548-2.209-.923-3.74-1.647-3.911-1.618C173.588,267.2,179.221,290.629,179.146,291.964Z" transform="translate(-171.843 -257.63)" opacity="0.25" style="mix-blend-mode: overlay;isolation: isolate"/>
        <path id="Path_30253" data-name="Path 30253" d="M200.028,262.441v.482s-.441,9.148-7.287,8.752c1.347-1.078,1.6-2.974,1.5-5.27-.117-2.658-2.575-7.209-3.956-9.572,1.734.267,2.853.454,2.853.454Z" transform="translate(-173.599 -256.833)" opacity="0.25" style="mix-blend-mode: overlay;isolation: isolate"/>
      </g>
      <path id="Path_30254" data-name="Path 30254" d="M183.387,228.655a1.916,1.916,0,0,0-.379.886s-.008-.013-.024-.042c-.08-.141-.366-.637-.737-1.211-.624-.965-1.485-2.163-2.005-2.309-.836-.228-3.062,2.583-6.069,2.809a4.94,4.94,0,0,1-.6.013c-3.312-.15-6.822-4.847-4-10.379a3.655,3.655,0,0,0,3.012,2.076,1.745,1.745,0,0,1-1.281-1.781c3.606.641,5.482-2.076,8.6-1.086s2.916,2.866,2.916,2.866,2.371-.94,3.112,2.026C186.518,224.895,184.3,227.232,183.387,228.655Z" transform="translate(-157.72 -217.411)" fill="#092533"/>
      <path id="Path_30255" data-name="Path 30255" d="M183.576,230.4a6.333,6.333,0,0,1-1.161,2.225A3.267,3.267,0,0,1,179.894,234c-2.1-.051-4.2-2.875-5.129-4.31,3.008-.225,5.233-3.037,6.069-2.809.52.146,1.381,1.344,2.005,2.309C183.21,229.762,183.5,230.258,183.576,230.4Z" transform="translate(-158.313 -218.312)" fill="url(#linear-gradient-2)"/>
      <path id="Path_30256" data-name="Path 30256" d="M187.421,230.969s-1.581,3.611-2.175,2.82a3.9,3.9,0,0,0-2.026-.882,6.334,6.334,0,0,0,1.161-2.225c.016.029.024.042.024.042a1.916,1.916,0,0,1,.379-.886A7.025,7.025,0,0,0,187.421,230.969Z" transform="translate(-159.118 -218.594)" fill="url(#linear-gradient-3)"/>
      <path id="Path_30257" data-name="Path 30257" d="M198.78,261.526c-2.521-.37-9.338-7.782-9.338-10.972a10.052,10.052,0,0,0-.133-1.494c-.524-3.32-2.442-8.186-3.24-11.627-.928-4,.407-5.5.407-5.5,3.1-5.337,10.127,5.241,14.132,13.723l0,0a22,22,0,0,1,2.321,7.288C203.22,258.955,201.3,261.9,198.78,261.526Z" transform="translate(-159.358 -218.657)" fill="#4d5aff"/>
      <path id="Path_30258" data-name="Path 30258" d="M199.154,261.968c-2.521-.37-9.338-7.782-9.338-10.972a10.055,10.055,0,0,0-.133-1.494l-.017-1.422,2.471-12.945a21.046,21.046,0,0,1,3.956,11.318c.541,7.263,8.538,8.844,4.894-.349a22,22,0,0,1,2.321,7.288C203.593,259.4,201.674,262.339,199.154,261.968Z" transform="translate(-159.732 -219.099)" opacity="0.25" style="mix-blend-mode: overlay;isolation: isolate"/>
      <path id="Path_30259" data-name="Path 30259" d="M193.528,245.723a.9.9,0,0,1-.337.146,19.94,19.94,0,0,1-5.993,0,2.333,2.333,0,0,1-.491-.142c-.936-.445,0-1.535-.295-3.461s-1.036-7.562,1.83-9.292c3-1.81,5.187,5.042,5.287,8.453S194.172,245.178,193.528,245.723Z" transform="translate(-159.392 -218.864)" fill="#4d5aff"/>
      <path id="Path_30260" data-name="Path 30260" d="M191.864,247.257s-.137,8.332-1.725,12.263v.008c-.5,1.223-1.132,2.018-1.952,2-3.448-.075-11.193-8.265-11.9-8.565s-4.226.224-4.114-.3,1.486-1.668,2.966-2.221,1.223-.224,10.749,4.152c-.129-.841-.075-4.476-.033-6.535,0-.312.013-.586.017-.811A19.94,19.94,0,0,0,191.864,247.257Z" transform="translate(-158.066 -220.252)" fill="url(#linear-gradient-4)"/>
      <path id="Path_30261" data-name="Path 30261" d="M182.083,300.472c.242,1.486-9.733,11.639-9.214,8.973s3.632-11.124,3.632-11.124c.836-.125,2.229-1.647,2.628-2.915C179.944,296.82,181.879,299.241,182.083,300.472Z" transform="translate(-158.131 -224.837)" fill="#4d5aff"/>
      <path id="Path_30262" data-name="Path 30262" d="M190.909,266.335s-16.012-3.007-19.175-1.553,5.786,26.758,5.786,26.758" transform="translate(-157.96 -221.883)" fill="none" stroke="#fff" stroke-miterlimit="10" stroke-width="0.46" opacity="0.25" style="mix-blend-mode: overlay;isolation: isolate"/>
      <path id="Path_30263" data-name="Path 30263" d="M191.578,259.519c.3-1.672.532-6.534-.309-8.456-.565-1.3-2.67-2.413-3.977-3,0-.312.013-.586.017-.811a19.94,19.94,0,0,0,5.993,0S193.167,255.589,191.578,259.519Z" transform="translate(-159.506 -220.252)" opacity="0.25" style="mix-blend-mode: overlay;isolation: isolate"/>
    </g>
    <g id="Group_13286" data-name="Group 13286" transform="translate(442.337 177.112)">
      <path id="Path_30264" data-name="Path 30264" d="M474.569,197.8a46.108,46.108,0,0,1-1.706,5c-1.2,3.083-3.008,7.284-5.674,13.14-.066,2.974-1.014,21.947-1.272,26.314-.033.533-.054.849-.062.89-.038.192-.724.557-1.473.745-.707.183-1.464.208-1.789-.224-.67-.89-5.191-18.832-5.412-23.058s-.445-3.261,4.742-20.087c-1.26.59-9.43.37-9.43.37s1.5,20.607,1.506,20.757a.488.488,0,0,1-.042.141,3.754,3.754,0,0,1-.719,1.227c-.146.146-.3.229-.432.187a2.245,2.245,0,0,1-.549-.49,55.1,55.1,0,0,1-8.2-12.484c-2.741-6.153-3.411-10.453-.815-14.751s15.741-4.629,15.741-4.629c.831.233,2.745.461,4.638.911.557.128,1.115.282,1.639.457,2.879.957,8.366,2.172,9.547,1.489A7.234,7.234,0,0,1,474.569,197.8Z" transform="translate(-441.61 -160.85)" fill="#6c5be8"/>
      <path id="Path_30265" data-name="Path 30265" d="M486.767,181.437c-.52.295-6.56.071-10.64-1.485.021.719.112,1.85.216,3.136.162,2.026.349,4.434.3,6.19-.024,1.252-.17,2.175-.519,2.388a.026.026,0,0,1-.017.008c-.628.362-2.466.187-4.488-.2-1.307-.25-2.687-.586-3.864-.924-.429-.125-.832-.249-1.194-.37-2.313-.774-5.2-1.069-6.277-1.368-.271-.075-.424-.146-.433-.229-.033-.408,1-1.331,1.488-2.3.059-.12.138-.3.225-.528a41.027,41.027,0,0,0,1.314-4.143c.179-.719.246-1.193.088-1.11-.482.258-3.336,5.594-3.669,5.594a6.3,6.3,0,0,1-1.373-.79c-1.148-.778-2.591-1.922-2.625-2.467a.208.208,0,0,1,.067-.186c.67-.632,5.782-9.231,7.637-11.066a8.236,8.236,0,0,1,4.377-2.121,11.759,11.759,0,0,1,3.294.383c3.677.919,7.051,3.24,8.973,4.388,2.483,1.481,4.188,1.073,4.816,1.443S487.283,181.137,486.767,181.437Z" transform="translate(-442.914 -158.814)" fill="#ff6643"/>
      <path id="Path_30266" data-name="Path 30266" d="M477.305,190.556c-3.419.042-11.019-.262-15.078-3.515a41.036,41.036,0,0,0,1.314-4.143s8.025,2.434,13.462,1.468C477.164,186.392,477.352,188.8,477.305,190.556Z" transform="translate(-443.573 -160.093)" fill="#ff9280"/>
      <path id="Path_30267" data-name="Path 30267" d="M471.775,169.856c-.133,1.422-.636,2.953-2.184,2.833a2.922,2.922,0,0,1-2.753-2.788,7.624,7.624,0,0,1,1.643-.428A11.759,11.759,0,0,1,471.775,169.856Z" transform="translate(-444.012 -158.814)" opacity="0.25" style="mix-blend-mode: overlay;isolation: isolate"/>
      <path id="Path_30268" data-name="Path 30268" d="M470.429,165.636a6.1,6.1,0,0,0-1.115-2.3c-.6.982-2.928,1.486-4.721,1.614a7.186,7.186,0,0,1-1.951-.054A5.5,5.5,0,0,1,467.5,157.7c2.183-.149,4.151,1.478,3.557,3.96C473.021,163.6,470.429,165.636,470.429,165.636Z" transform="translate(-443.589 -157.694)" fill="#350909"/>
      <path id="Path_30269" data-name="Path 30269" d="M470.66,166.23a8.335,8.335,0,0,1-.586,1.427h0a2.014,2.014,0,0,1-2.742,1.094,1.519,1.519,0,0,1-.146-.067,4.234,4.234,0,0,1-2.143-2.442,5.631,5.631,0,0,1-.216-.7c1.793-.128,4.119-.632,4.721-1.614l.1.112A6.4,6.4,0,0,1,470.66,166.23Z" transform="translate(-443.82 -158.287)" fill="url(#linear-gradient-5)"/>
      <path id="Path_30270" data-name="Path 30270" d="M470.721,170.4c-.22,1.373-2.483,1.3-2.728.407-.129-.461-.275-.907-.387-1.231-.1-.3-.175-.5-.175-.5v0a1.515,1.515,0,0,0,.146.067,2.014,2.014,0,0,0,2.742-1.094h0c-.154.308.258.694.4,1.422A2.66,2.66,0,0,1,470.721,170.4Z" transform="translate(-444.068 -158.679)" fill="url(#linear-gradient-6)"/>
      <path id="Path_30271" data-name="Path 30271" d="M457.144,230.167c-.221,1.706-9.043,8.378-8.893,7.192s4.638-11.389,4.638-11.389a2.243,2.243,0,0,0,.549.49c.444.129,1.011-1,1.152-1.414C455.775,226.536,457.344,228.645,457.144,230.167Z" transform="translate(-442.242 -164.106)" fill="#12006d"/>
      <path id="Path_30272" data-name="Path 30272" d="M464.7,262.965c-2.076-4.451,0-13.889,0-13.889.666.89,3.187-.15,3.262-.52.008-.042.029-.357.062-.89,0,0,.332,4.522.727,8.353S466.78,267.412,464.7,262.965Z" transform="translate(-443.721 -166.259)" fill="#12006d"/>
      <path id="Path_30273" data-name="Path 30273" d="M462.831,201.15c-1.26.59-9.43.37-9.43.37s1.5,20.607,1.506,20.757a.488.488,0,0,1-.042.141,3.754,3.754,0,0,1-.719,1.227c-1.506-7.05-4.51-20.57-2.114-22.891,3.066-2.966,11.369-3.757,11.489-3.107A17.086,17.086,0,0,1,462.831,201.15Z" transform="translate(-442.517 -161.477)" opacity="0.25" style="mix-blend-mode: overlay;isolation: isolate"/>
      <path id="Path_30274" data-name="Path 30274" d="M457.1,190.157a.985.985,0,0,0-.146.6c.179.69-.769,9.338-.424,10.228a16.7,16.7,0,0,1,.346,5.488c-.2,1.78-3.906,2.866-3.906,1.335s.445-5.141.594-6.526-1.235-11.39-.865-12.775a15.933,15.933,0,0,1,1.784-3.386c.328-.511.57-.861.57-.861.054.869,3.694,3.257,4,3.257A16.481,16.481,0,0,0,457.1,190.157Z" transform="translate(-442.66 -160.222)" fill="url(#linear-gradient-7)"/>
      <path id="Path_30275" data-name="Path 30275" d="M476.885,197.894a7.705,7.705,0,0,1-4.755-2.121,23.4,23.4,0,0,0-6.193-3.914c.557.128,1.115.282,1.639.457,2.879.957,8.366,2.172,9.547,1.489A7.234,7.234,0,0,1,476.885,197.894Z" transform="translate(-443.926 -160.946)" opacity="0.25" style="mix-blend-mode: overlay;isolation: isolate"/>
      <path id="Path_30276" data-name="Path 30276" d="M475.26,204.06c-1.2,3.083-3.008,7.284-5.674,13.14-.066,2.974-1.014,21.947-1.272,26.314-.033.533-.054.849-.062.89-.038.192-.724.557-1.473.745.171-6.4-.054-20.325,1.028-24.468C469.1,215.724,474.9,204.742,475.26,204.06Z" transform="translate(-444.006 -162.108)" opacity="0.25" style="mix-blend-mode: overlay;isolation: isolate"/>
      <path id="Path_30277" data-name="Path 30277" d="M468.034,191.156c-.429-.125-.832-.249-1.194-.37-2.313-.774-5.2-1.069-6.277-1.368-.271-.075-.424-.146-.432-.229-.034-.408,1-1.331,1.488-2.3s2.109-6.044,1.627-5.782-3.336,5.594-3.669,5.594a6.293,6.293,0,0,1-1.373-.79c.071-.121.149-.242.237-.37,1.776-2.621,4.692-5.882,5.187-8.7.4-2.076.99-.889.89,1.781C464.427,181.023,464.3,188.361,468.034,191.156Z" transform="translate(-443.19 -159.416)" opacity="0.25" style="mix-blend-mode: overlay;isolation: isolate"/>
      <path id="Path_30278" data-name="Path 30278" d="M477.844,192.619a.026.026,0,0,1-.017.008c-.628.362-2.466.187-4.488-.2,3.615-3.623,1.643-13.436,2.209-12.932a14.545,14.545,0,0,0,2.3,1.406C477.918,183.575,479,191.916,477.844,192.619Z" transform="translate(-444.631 -159.768)" opacity="0.25" style="mix-blend-mode: overlay;isolation: isolate"/>
      <path id="Path_30279" data-name="Path 30279" d="M459.24,187.511a16.481,16.481,0,0,0-1.951,2.646c-.013-.221-.029-.424-.05-.607-.112-1.06-1.764-3.365-2.567-4.434.328-.511.57-.861.57-.861C455.3,185.123,458.937,187.511,459.24,187.511Z" transform="translate(-442.854 -160.222)" opacity="0.25" style="mix-blend-mode: overlay;isolation: isolate"/>
      <path id="Path_30280" data-name="Path 30280" d="M469.646,164.041c-.89,1.968-3.507,2.2-4.605,2.2a5.631,5.631,0,0,1-.216-.7c1.793-.128,4.119-.632,4.721-1.614Z" transform="translate(-443.82 -158.287)" opacity="0.25" style="mix-blend-mode: overlay;isolation: isolate"/>
      <path id="Path_30281" data-name="Path 30281" d="M470.717,169.471a1.585,1.585,0,0,1-.624.283,3.822,3.822,0,0,1-2.487-.176c-.1-.3-.175-.5-.175-.5v0a1.515,1.515,0,0,0,.146.067,2.014,2.014,0,0,0,2.742-1.094h0C470.168,168.357,470.58,168.743,470.717,169.471Z" transform="translate(-444.068 -158.679)" opacity="0.25" style="mix-blend-mode: overlay;isolation: isolate"/>
      <path id="Path_30282" data-name="Path 30282" d="M491.707,178.272c-.009.05-.021.1-.03.146-.49,2.234-2.279,2.471-2.616,2.325s-1.228-1.169-2.005-4.776c-.017-.071-.029-.141-.046-.216,0,0-1.68-4.31-2.471-6.381-1.951-1.157-2.321-.687-2.595-2.022a3.9,3.9,0,0,1,1.089-3.311c.495-.246,2.716,1.83,3.016,2.595S492.153,175.9,491.707,178.272Z" transform="translate(-445.445 -158.296)" fill="url(#linear-gradient-8)"/>
      <path id="Path_30283" data-name="Path 30283" d="M492.221,179.675c-.49,2.234-2.279,2.471-2.616,2.325s-1.228-1.169-2.005-4.776a7.607,7.607,0,0,0,2.092,2.837A1.811,1.811,0,0,0,492.221,179.675Z" transform="translate(-445.989 -159.553)" opacity="0.25" style="mix-blend-mode: overlay;isolation: isolate"/>
    </g>
    <g id="Group_13287" data-name="Group 13287" transform="translate(323.109 241.077)">
      <path id="Path_30284" data-name="Path 30284" d="M409.8,301.326l-4.766-24.346q-5.292-27.012-20.4-39.414t-37.35-8.045q-22.232,4.355-31.527,21.435t-3.989,44.189l4.784,24.439q5.273,26.917,20.387,39.318a39.423,39.423,0,0,0,14.052,7.479q10.488,3.075,23.385.549a55.892,55.892,0,0,0,12.2-3.778,39.756,39.756,0,0,0,19.242-17.641Q415.112,328.426,409.8,301.326ZM380.045,334A12.71,12.71,0,0,1,369.7,343.04q-8.18,1.6-13.3-4.6-3.493-4.225-5.973-12.541v-.009a.22.22,0,0,1-.009-.029q-1.148-3.856-2.071-8.594l-6.693-34.181q-2.353-13.465-.017-20.79t10.329-8.889a12.827,12.827,0,0,1,10.516,2.05h0a15.413,15.413,0,0,1,2.817,2.729q5.16,6.383,7.982,20.807l6.477,33.074Q382.491,326.515,380.045,334Z" transform="translate(-309.838 -228.389)" fill="#ff6643"/>
      <path id="Path_30285" data-name="Path 30285" d="M386.707,341.42c1.373,2.114,3.2,16.481,4.135,24.58a55.892,55.892,0,0,1-12.2,3.778q-12.9,2.52-23.385-.549a20.761,20.761,0,0,0,.774-2.01c4.364-13.332-1.09-37.387-1.339-38.469q2.477,8.317,5.973,12.541,5.129,6.2,13.3,4.6a12.71,12.71,0,0,0,10.346-9.035q2.446-7.493-.288-21.934l-6.477-33.074q-2.82-14.419-7.982-20.807a15.411,15.411,0,0,0-2.817-2.729c10.52,2.064,19.064,34.634,22.625,50.346S393.233,331.637,386.707,341.42Z" transform="translate(-314.108 -231.237)" opacity="0.25" style="mix-blend-mode: overlay;isolation: isolate"/>
      <path id="Path_30286" data-name="Path 30286" d="M357.259,343.188s.682,1.783,4.265,2.772,6.943-4.555,9.316-2.772,6.17,9.175,9.51,8.049,4.328,16.666,2.747,18.643-2.719-14-6.895-13.524-1.013,12.535-3.386,14.71-1.383-5.337-3.954-6.722,2.768,60.493-1.186,61.482-6.524-2.768-4.942-16.013-.4-58.911-2.768-61.284S357.743,345.712,357.259,343.188Z" transform="translate(-314.352 -239.284)" fill="#6c5be8"/>
    </g>
    <g id="Group_13289" data-name="Group 13289" transform="translate(362.44 150.517)">
      <g id="Group_13288" data-name="Group 13288">
        <path id="Path_30287" data-name="Path 30287" d="M412.589,145.166s-3.151-8.637-2.892-9.3,3.721-1.927,3.973-1.557,2.44,7.08,2.069,7.561S412.589,145.166,412.589,145.166Z" transform="translate(-358.674 -128.865)" fill="#12006d"/>
        <path id="Path_30288" data-name="Path 30288" d="M354.968,133.442a5.656,5.656,0,0,1,2.778,2.874c.854,2.076.521-5.412.521-5.412l-.927-.852Z" transform="translate(-353.465 -128.467)" fill="url(#linear-gradient-9)"/>
        <path id="Path_30289" data-name="Path 30289" d="M353.85,133.317a28,28,0,0,0,2.817,1.91c.408.111,1.2-4.6.839-5.337a2.093,2.093,0,0,0-2.511-1C354.146,129.37,353.454,133.026,353.85,133.317Z" transform="translate(-353.348 -128.341)" fill="url(#linear-gradient-10)"/>
        <path id="Path_30290" data-name="Path 30290" d="M360.395,133.814s-1.919-4.448-2.757-5.226-2.4.223-2.506.63,1.862.7,2.506,1.372-1.1,5.6.57,7.339S360.395,133.814,360.395,133.814Z" transform="translate(-353.48 -128.3)" fill="url(#linear-gradient-11)"/>
        <path id="Path_30291" data-name="Path 30291" d="M410.273,146.75a10.75,10.75,0,0,0,2.076-1.409c.371-.482-.3-2.3.778-3.967s3.373-1.185,3.93.816-.889,4.522-1.557,5.3-5.226,4.04-5.226,4.04" transform="translate(-358.73 -129.448)" fill="url(#linear-gradient-12)"/>
        <path id="Path_30292" data-name="Path 30292" d="M406.509,149.982a3.988,3.988,0,0,1-.945,1.493c-2.162,2.529-8.123,7.479-18.868,13.137a26.754,26.754,0,0,0-.5,2.628,43.124,43.124,0,0,0-.258,8.22c.033.657.075,1.3.121,1.914.2,2.7.461,4.92.391,6.21a1.7,1.7,0,0,1-.325,1.119,6.16,6.16,0,0,1-.761.574c-5.366,3.445-15.133-1.7-16.713-3.248a.739.739,0,0,1-.216-.291c-.275-1.04.79-2.151,1.384-3.93a12.054,12.054,0,0,0,.3-1.91c.283-2.741.528-7.646.616-11.334a36.35,36.35,0,0,0-.071-4.7.04.04,0,0,1,0-.017c-.295-1.21-9.292-14.8-11.992-19.621a5.784,5.784,0,0,1-.761-1.63c.1-1.085,2.175-4.941,2.62-4.891a4.174,4.174,0,0,1,.765.927c2.084,2.9,7.691,11.647,8.723,12.762.964,1.044,5.878,6.214,7.982,8.432.594.62.965,1.011.965,1.011a25.115,25.115,0,0,0,3.427-.3c10.112-1.56,20.049-8.64,22.65-10.607.428-.325.657-.508.657-.508S406.733,148.6,406.509,149.982Z" transform="translate(-353.744 -128.813)" fill="#ff7900"/>
        <path id="Path_30293" data-name="Path 30293" d="M383.382,163.627c-3.448.557-3.459-3.93-3.28-5.481.594.62.965,1.011.965,1.011a25.115,25.115,0,0,0,3.427-.3C384.923,160.621,384.58,163.436,383.382,163.627Z" transform="translate(-355.852 -131.141)" fill="#c64200"/>
        <path id="Path_30294" data-name="Path 30294" d="M386.655,152.755a3.362,3.362,0,0,1-2.658.254,9.844,9.844,0,0,1-3.028-1.481,5.5,5.5,0,0,0-1,3.149c-2.446-2.113-3.04-4.226-.965-5-.853-3.707.965-4.484,4-4.668s3.743,2.929,5.561,2.854C388.676,149.519,388.206,151.835,386.655,152.755Z" transform="translate(-355.633 -129.889)" fill="#12006d"/>
        <path id="Path_30295" data-name="Path 30295" d="M386.89,153.442c-.033.3-.083.645-.155,1.015-.407,2.167-1.472,5.192-3.078,5.025a1.053,1.053,0,0,1-.262-.05,4.98,4.98,0,0,1-2.767-2.887,7.663,7.663,0,0,1-.424-1.182,6.623,6.623,0,0,1,.271-1.651,4.592,4.592,0,0,1,.728-1.5,9.845,9.845,0,0,0,3.028,1.481A3.362,3.362,0,0,0,386.89,153.442Z" transform="translate(-355.867 -130.576)" fill="url(#linear-gradient-13)"/>
        <path id="Path_30296" data-name="Path 30296" d="M383.7,161.215c-.016.786-.125,1.4-.649,1.44a2.75,2.75,0,0,1-2.4-2.817c.025-.511.034-1.056.034-1.555s-.008-.961-.017-1.281a4.98,4.98,0,0,0,2.767,2.887,1.054,1.054,0,0,0,.262.05C383.7,160.375,383.712,160.816,383.7,161.215Z" transform="translate(-355.91 -131.032)" fill="url(#linear-gradient-14)"/>
        <path id="Path_30297" data-name="Path 30297" d="M411.468,151.215a3.988,3.988,0,0,1-.945,1.493,39.474,39.474,0,0,0-.527-5.557c.428-.325.657-.508.657-.508S411.693,149.83,411.468,151.215Z" transform="translate(-358.704 -130.046)" fill="#c64200"/>
        <path id="Path_30298" data-name="Path 30298" d="M361.289,134.624c-1.581,1.352-2.351,4.3-2.625,5.594a5.784,5.784,0,0,1-.761-1.63c.1-1.085,2.175-4.941,2.62-4.891A4.174,4.174,0,0,1,361.289,134.624Z" transform="translate(-353.744 -128.813)" fill="#c64200"/>
        <path id="Path_30299" data-name="Path 30299" d="M387.341,180.622c-3.536.511-10.187.965-15.941-1.478.283-2.741.528-7.646.616-11.334,2.849,1.206,9,3.352,15.461,2.678A47.541,47.541,0,0,0,387.341,180.622Z" transform="translate(-355.029 -132.061)" fill="#ffb000"/>
        <path id="Path_30300" data-name="Path 30300" d="M386.464,188.029c-5.782,3.711-16.672-2.55-16.93-3.54-.275-1.04.79-2.151,1.384-3.93a12.054,12.054,0,0,0,.3-1.91c.283-2.741.528-7.646.616-11.334a36.34,36.34,0,0,0-.071-4.7,102.746,102.746,0,0,1,3.082,12.612c1.041,6.227.815,9.193,3.856,11.194A14.144,14.144,0,0,0,386.464,188.029Z" transform="translate(-354.847 -131.566)" opacity="0.25" style="mix-blend-mode: overlay;isolation: isolate"/>
        <path id="Path_30301" data-name="Path 30301" d="M398.605,207.48c0,2.571-9.293,16.814-11.219,19.737-.221.337-.346.525-.346.525a12.449,12.449,0,0,1-2.184-.471c-.686-.237-1.272-.561-1.272-1.011a3.119,3.119,0,0,1,.045-.42c.328-1.984,2.372-9.164,4.992-18.657-1.381-1.68-11.069-8.107-11.069-8.107a.188.188,0,0,0-.008.025c-.42.969-13.868,32.067-15.4,34.966a1.328,1.328,0,0,1-.116.2c-.691.89-3.557.986-3.757-.89v-.008c-.823-7.862,5.957-31.572,9.114-42.059.565-1.88,1.015-3.336,1.286-4.2,1.581,1.547,11.347,6.693,16.713,3.248a6.159,6.159,0,0,0,.761-.574,1.7,1.7,0,0,0,.325-1.119c.1.109.2.225.308.35C390.527,193.3,398.605,205,398.605,207.48Z" transform="translate(-353.773 -133.899)" fill="#98c4f9"/>
        <path id="Path_30302" data-name="Path 30302" d="M362.631,243.287c-.37,1.851-10.157,7.338-9.267,4.018.723-2.691,3.444-7.388,4.446-9.068v.008c.2,1.877,3.065,1.781,3.757.89a1.326,1.326,0,0,0,.116-.2C362.182,240.367,362.872,242.089,362.631,243.287Z" transform="translate(-353.307 -138.766)" fill="#12006d"/>
        <path id="Path_30303" data-name="Path 30303" d="M392.941,240.864c-.744.37-10.378-3.336-10.157-4.6s3.186-6.352,3.186-6.352a3.12,3.12,0,0,0-.045.42c0,1.086,3.456,1.481,3.456,1.481s.125-.187.346-.525C390.154,235.14,393.636,240.515,392.941,240.864Z" transform="translate(-356.113 -137.974)" fill="#12006d"/>
        <path id="Path_30304" data-name="Path 30304" d="M376.652,199.163s-10.676,20.965-14.679,35.354" transform="translate(-354.132 -135.046)" fill="none" stroke="#000" stroke-miterlimit="10" stroke-width="0.46" opacity="0.25" style="mix-blend-mode: overlay;isolation: isolate"/>
        <path id="Path_30305" data-name="Path 30305" d="M380.982,199.163s11.861,7.784,12.306,9.044-6.154,18.781-6.154,18.781" transform="translate(-355.941 -135.046)" fill="none" stroke="#000" stroke-miterlimit="10" stroke-width="0.46" opacity="0.25" style="mix-blend-mode: overlay;isolation: isolate"/>
        <path id="Path_30306" data-name="Path 30306" d="M387.75,189.02c-1.307,5.216-8.869,3.8-12.737,2.795a22.932,22.932,0,0,0-6.656-.5c.566-1.88,1.015-3.336,1.286-4.2,1.581,1.547,11.347,6.693,16.713,3.248a6.159,6.159,0,0,0,.761-.574,1.7,1.7,0,0,0,.325-1.119C387.541,188.778,387.645,188.895,387.75,189.02Z" transform="translate(-354.74 -133.899)" opacity="0.25" style="mix-blend-mode: overlay;isolation: isolate"/>
        <path id="Path_30307" data-name="Path 30307" d="M386.892,228.229c-.686-.237-1.272-.561-1.272-1.011a3.115,3.115,0,0,1,.045-.42c.328-1.984,2.371-9.164,4.992-18.657-1.381-1.68-11.069-8.107-11.069-8.107s.791-2.666,1.681-2.866,11.169,8.648,12.3,10.478C394.576,209.257,387.575,222.384,386.892,228.229Z" transform="translate(-355.809 -134.856)" opacity="0.25" style="mix-blend-mode: overlay;isolation: isolate"/>
        <path id="Path_30308" data-name="Path 30308" d="M386.918,153.442c-.033.3-.083.645-.155,1.015-2.591,1.318-5.133-1.651-5.436-1.614-.175.021-.533.47-.824.87a4.592,4.592,0,0,1,.728-1.5,9.845,9.845,0,0,0,3.028,1.481A3.362,3.362,0,0,0,386.918,153.442Z" transform="translate(-355.896 -130.576)" opacity="0.25" style="mix-blend-mode: overlay;isolation: isolate"/>
        <path id="Path_30309" data-name="Path 30309" d="M383.7,161.215a4.988,4.988,0,0,1-3.011-2.932c0-.5-.008-.961-.017-1.281a4.98,4.98,0,0,0,2.767,2.887,1.053,1.053,0,0,0,.261.05C383.7,160.375,383.714,160.816,383.7,161.215Z" transform="translate(-355.912 -131.032)" opacity="0.25" style="mix-blend-mode: overlay;isolation: isolate"/>
        <path id="Path_30310" data-name="Path 30310" d="M389.049,170.493a43.12,43.12,0,0,0-.258,8.22c-.673-2.841-1.264-5.895-.574-7.663a20.791,20.791,0,0,1,1.336-3.186A26.745,26.745,0,0,0,389.049,170.493Z" transform="translate(-356.601 -132.066)" opacity="0.25" style="mix-blend-mode: overlay;isolation: isolate"/>
      </g>
    </g>
    <g id="Group_13291" data-name="Group 13291" transform="translate(207.468 211.81)">
      <g id="Group_13290" data-name="Group 13290">
        <path id="Path_30311" data-name="Path 30311" d="M286.222,201.541l-32.005-5.5-.05.287-70.678,79.576-1.46,19.891,10.137,1.744,17.546,3.016,23.552,4.047,2.238.383-1.685,9.813-.783,4.538-2.574,15,20.831,3.582,11.173,1.917,5.042-29.346,14.06,2.412,4.243-24.7-14.061-2.412Zm-39.954,40.778-6.527,37.97-7.808-1.344-17.075-2.932,9.455-11.286,2.162-2.583L244.5,240.626l2.551-2.887Z" transform="translate(-182.029 -196.042)" fill="#6c5be8"/>
        <path id="Path_30312" data-name="Path 30312" d="M236.177,313.017l-23.552-4.047c2.774-9.164,6.235-21.793,5.146-24.543l17.075,2.932a17.118,17.118,0,0,1,2.192,7.77C237.454,301.22,236.547,307.439,236.177,313.017Z" transform="translate(-184.942 -204.456)" opacity="0.25" style="mix-blend-mode: overlay;isolation: isolate"/>
        <path id="Path_30313" data-name="Path 30313" d="M219.131,284.342s2.568-3.563,8.35-2.449,6.227,8.23,3.706,16.087-3.113,35.288-1.927,44.184.445,13.047-2.372,13.344-4.151-10.675-2.52-18.385,1.482-14.827-1.186-13.641-.445,4.151-1.78,6.82-5.337,1.038-5.189-4S224.422,288.5,219.131,284.342Z" transform="translate(-185.283 -204.194)" fill="#98c4f9"/>
        <path id="Path_30314" data-name="Path 30314" d="M279.038,286.367l14.06,2.413-4.243,24.7-14.06-2.413-5.042,29.347-11.173-1.918,19.638-122.537L293.51,202.12Z" transform="translate(-189.317 -196.621)" opacity="0.25" style="mix-blend-mode: overlay;isolation: isolate"/>
      </g>
    </g>
    <g id="Group_13292" data-name="Group 13292" transform="translate(234.515 175.778)">
      <path id="Path_30315" data-name="Path 30315" d="M335.275,162a5.783,5.783,0,1,1-5.783-5.783A5.783,5.783,0,0,1,335.275,162Z" transform="translate(-222.563 -156.219)" fill="#ff7900"/>
      <path id="Path_30316" data-name="Path 30316" d="M557.634,243.218a5.783,5.783,0,1,1-5.783-5.783A5.783,5.783,0,0,1,557.634,243.218Z" transform="translate(-243.732 -163.951)" fill="#6c5be8"/>
      <path id="Path_30317" data-name="Path 30317" d="M223.486,196.557a5.783,5.783,0,1,1-5.783-5.783A5.783,5.783,0,0,1,223.486,196.557Z" transform="translate(-211.921 -159.509)" fill="#98c4f9"/>
      <path id="Path_30318" data-name="Path 30318" d="M328.884,392a5.783,5.783,0,1,1-5.783-5.782A5.783,5.783,0,0,1,328.884,392Z" transform="translate(-221.955 -178.115)" fill="#ff6643"/>
      <circle id="Ellipse_1664" data-name="Ellipse 1664" cx="2.23" cy="2.23" r="2.23" transform="translate(272.834 20.959)" fill="#ff7900"/>
      <circle id="Ellipse_1665" data-name="Ellipse 1665" cx="2.23" cy="2.23" r="2.23" transform="translate(102.469 55.688)" fill="#98c4f9"/>
      <path id="Path_30319" data-name="Path 30319" d="M255.892,186.62a2.23,2.23,0,1,1-2.23-2.23A2.23,2.23,0,0,1,255.892,186.62Z" transform="translate(-215.682 -158.901)" fill="#6c5be8"/>
    </g>
  </g>
</svg>
